<svg version="1.2" xmlns="http://www.w3.org/2000/svg" viewBox="0 0 24 24" width="24" height="24">
	<title>moon_stars_24dp_5E99B7_FILL0_wght400_GRAD0_opsz24</title>
	<style>
		.s0 { fill: #5e99b7 } 
	</style>
	<g id="Layer 1">
		<path class="s0" d="m12.1 22q-2.1 0-4-0.8-1.8-0.8-3.2-2.2-1.3-1.3-2.1-3.2-0.8-1.8-0.8-3.9 0-3.6 2.3-6.4 2.3-2.8 5.9-3.5-0.4 2.5 0.3 4.8 0.7 2.4 2.5 4.2 1.8 1.7 4.1 2.5 2.4 0.7 4.9 0.3-0.7 3.6-3.5 5.9-2.8 2.3-6.4 2.3zm7.9-11l-2-2 2-2 2 2zm-5-3l-3-3 3-3 3 3zm-2.9 12q2.2 0 4.1-1.1 1.8-1.1 2.9-3-2.1-0.2-4.1-1.1-1.9-0.9-3.4-2.4-1.5-1.5-2.4-3.5-0.9-1.9-1.1-4.1-1.9 1.1-3 3-1.1 1.9-1.1 4.1 0 3.4 2.3 5.7 2.4 2.4 5.8 2.4z"/>
		<path id="Shape 1" fill-rule="evenodd" class="s0" d="m8 4l-2 2-1 1-1 2v1l-1 2 1 1v1 1l1 1v1 1h1l1 1h1l1 1h1 1v1h1 2"/>
		<path id="Shape 2" fill-rule="evenodd" class="s0" d="m11 20c0 0 5.8 0.9 9-4 0.9-1.5-0.6-2-3-2.2-9.3 0.3-17 1.4-13-0.8 5.7-3.2 5-2 5-2h3l1 2"/>
		<path id="Shape 3" fill-rule="evenodd" class="s0" d="m10 17l-1-5 3 1 2 1 1 3z"/>
	</g>
</svg>